PathFileType  4	(X/Y/Z) C:\Users\antoi\Documents\MyRepositories\mobilecap\ResultsAnalysis
DataRate	CameraRate	NumFrames	NumMarkers	Units	OrigDataRate	OrigDataStartFrame	OrigNumFrames
100.0	100.0	4	51	mm	100.0	87	139
Frame#	Time	r_knee			r_shank_antsup			r_ankle			r_calc			r_5meta			r_toe			L_knee			L_shank_antsup			L_ankle			L_calc			L_5meta			L_toe			r_sh2			r_sh3			r_sh4			L_sh2			L_sh3			r_thigh1			r_thigh2			r_thigh3			r_thigh4			r_thigh5			L_thigh1			L_thigh2			L_thigh3			L_thigh4			r.ASIS			r.PSIS			L.ASIS			L.PSIS			C7			R_Shoulder			L_Shoulder			R_Sternum			L_Sternum			R_humerus			R_elbow_med			R_elbow_lat			R_forearm			R_wrist_radius			R_wrist_ulna			L_humerus			L_elbow_med			L_elbow_lat			L_forearm			L_wrist_radius			L_wrist_ulna			R_HJC			L_HJC			R_HJC_reg			L_HJC_reg			
		X1	Y1	Z1	X2	Y2	Z2	X3	Y3	Z3	X4	Y4	Z4	X5	Y5	Z5	X6	Y6	Z6	X7	Y7	Z7	X8	Y8	Z8	X9	Y9	Z9	X10	Y10	Z10	X11	Y11	Z11	X12	Y12	Z12	X13	Y13	Z13	X14	Y14	Z14	X15	Y15	Z15	X16	Y16	Z16	X17	Y17	Z17	X18	Y18	Z18	X19	Y19	Z19	X20	Y20	Z20	X21	Y21	Z21	X22	Y22	Z22	X23	Y23	Z23	X24	Y24	Z24	X25	Y25	Z25	X26	Y26	Z26	X27	Y27	Z27	X28	Y28	Z28	X29	Y29	Z29	X30	Y30	Z30	X31	Y31	Z31	X32	Y32	Z32	X33	Y33	Z33	X34	Y34	Z34	X35	Y35	Z35	X36	Y36	Z36	X37	Y37	Z37	X38	Y38	Z38	X39	Y39	Z39	X40	Y40	Z40	X41	Y41	Z41	X42	Y42	Z42	X43	Y43	Z43	X44	Y44	Z44	X45	Y45	Z45	X46	Y46	Z46	X47	Y47	Z47	X48	Y48	Z48	X49	Y49	Z49	X50	Y50	Z50	X51	Y51	Z51	

87	0.86000000	1014.95644	570.93315	-43.58975	988.10362	494.82421	-33.60263	710.15995	270.33123	-88.05383	642.09983	275.69505	-147.26311	752.81693	115.40834	-45.63343	805.10155	110.27150	-95.93021	860.02561	536.96962	-329.21617	893.17477	418.51051	-327.77567	844.46304	92.95762	-280.98938	772.13959	53.58369	-242.48904	1017.41782	61.73404	-233.83776	1001.58373	31.98608	-299.87617	909.45767	412.45048	-35.76945	930.27939	548.84703	-27.83082	846.58981	470.03719	-39.18455	804.95841	423.87162	-351.86012	807.79574	304.07953	-340.43127	963.76110	882.07309	-21.71740	1018.91370	787.39242	-27.38530	979.78896	737.91192	-1.84906	868.36997	824.08243	-23.12304	927.10524	726.74910	-17.09504	934.20417	862.58207	-366.06457	941.14752	726.05222	-350.24185	817.06022	852.31391	-378.10112	834.22272	712.18933	-366.60875	928.57200	1052.37422	-74.51445	737.77406	1090.47741	-153.61653	939.85756	1055.15673	-333.48752	739.71643	1095.82149	-257.83804	737.30140	1599.89928	-229.95786	787.72768	1558.35787	-47.26151	824.17373	1558.83611	-383.97600	884.50933	1531.09911	-182.52811	890.87470	1527.50136	-235.51530	786.06248	1293.52621	56.19467	752.27818	1191.75626	-6.32161	772.47148	1205.99673	74.17295	870.74832	1077.71555	85.77361	935.59178	983.03218	74.16236	896.33269	973.26291	95.20337	870.74693	1304.53192	-478.86324	818.92515	1202.22843	-439.22436	863.03424	1215.60244	-494.45636	958.40172	1070.26589	-491.05207	1009.45979	986.44392	-468.71075	984.07358	973.55304	-495.02884	845.68061	972.56573	-83.92272	854.05795	977.38757	-314.08581	860.18492	971.92392	-116.59054	863.36484	980.68326	-287.43546	
88	0.87000000	1032.44271	573.66129	-45.74443	1008.16695	496.67672	-34.88388	739.60312	260.57735	-87.71015	670.90718	261.40145	-146.72195	791.16820	108.81326	-44.24455	843.39727	106.30449	-94.75523	865.57293	537.09326	-328.42495	897.04035	418.03810	-327.38176	844.54864	93.04585	-280.62279	772.18634	53.65667	-242.45411	1017.38163	61.44540	-233.79224	1001.61622	31.93930	-299.88955	933.01537	411.04978	-36.77288	948.18782	548.26586	-29.16868	867.82968	466.06994	-40.14627	808.74489	424.63358	-350.73939	810.00947	304.80725	-339.57467	977.55318	884.57888	-22.71952	1034.14531	790.81045	-28.93123	996.10268	740.66308	-2.78379	883.22117	825.19484	-22.79503	943.43101	729.14376	-17.33164	942.12375	862.08063	-366.38639	948.07808	725.58360	-350.31832	824.29782	853.18518	-377.52808	840.86411	712.43493	-365.68303	939.97341	1053.05879	-75.26934	748.51358	1090.70445	-152.83824	949.16034	1055.01094	-334.26239	749.72084	1095.96908	-256.98773	748.91031	1600.31896	-229.98797	799.19701	1558.58545	-47.28145	835.76635	1559.29915	-384.00311	895.99750	1531.17157	-182.60694	902.38603	1527.63104	-235.58983	794.30477	1293.58497	56.21260	759.87779	1192.23523	-6.66212	779.70109	1206.31023	73.98795	875.62104	1076.38773	86.61700	938.78604	980.62421	75.65318	899.25815	971.47355	96.41471	885.71354	1306.07092	-479.47820	836.06757	1202.58939	-440.02341	879.81348	1217.01492	-495.31922	978.64556	1073.99553	-491.99912	1031.90075	991.59165	-469.74970	1006.74934	977.99931	-495.95423	857.08085	973.13687	-83.69547	863.54913	977.31570	-313.93380	871.32744	972.12859	-116.80716	873.30315	980.76293	-287.62897	
89	0.88000000	1049.18587	576.03870	-47.84225	1027.80443	498.11597	-36.07923	769.79008	250.01470	-87.22844	700.75442	246.15492	-145.98557	830.34620	101.93602	-42.97068	882.36171	102.19300	-93.74979	871.19164	537.15906	-327.67079	900.97507	417.53819	-327.00080	844.63350	93.15349	-280.30073	772.21890	53.74540	-242.45219	1017.29991	61.15788	-233.76155	1001.63777	31.89248	-299.90898	956.40829	409.23761	-37.61597	965.71865	546.96738	-30.30896	888.96019	461.39490	-40.82875	812.64437	425.36571	-349.69059	812.32208	305.52337	-338.78770	991.10185	886.73074	-23.66298	1048.92531	793.82923	-30.46953	1011.86853	743.03844	-3.79288	897.50947	826.14102	-22.60056	959.23950	731.19889	-17.76937	950.01874	861.48250	-366.72874	955.07063	725.04074	-350.52445	831.63359	853.94921	-376.97881	847.54198	712.61830	-364.79236	951.40051	1053.64393	-75.87861	759.35332	1090.83616	-152.00506	958.59020	1054.77154	-334.93143	759.84510	1096.07924	-256.07739	760.49593	1600.60684	-229.92866	810.72756	1558.68440	-47.28922	847.35415	1559.66268	-383.98543	907.48454	1531.09921	-182.68074	913.87189	1527.62537	-235.65866	802.70901	1293.56428	56.23470	767.67326	1192.63539	-7.05254	787.09752	1206.56141	73.80893	880.54293	1075.00207	87.47147	941.90142	978.02862	77.06686	902.13260	969.62335	97.66673	900.51080	1307.54025	-480.01003	852.96851	1203.01119	-440.62929	896.34669	1218.37186	-496.04008	998.58584	1077.75068	-492.80748	1054.04082	996.84657	-470.66543	1029.10210	982.53234	-496.70217	868.51772	973.61399	-83.39171	873.16016	977.17066	-313.68469	882.54867	972.15515	-116.94323	883.35175	980.76128	-287.76968	
90	0.89000000	1065.23375	578.01563	-49.82080	1047.07524	499.12576	-37.21371	800.75696	238.78027	-86.61037	731.63832	230.15466	-145.01826	870.35925	94.99036	-41.79320	921.96996	98.11766	-92.93091	876.91338	537.14151	-326.96618	905.04192	416.99392	-326.60918	844.72993	93.27498	-280.02140	772.25941	53.82312	-242.46181	1017.19974	60.86857	-233.74050	1001.65746	31.83995	-299.93495	979.74199	407.02834	-38.32924	982.99390	544.92887	-31.27556	910.08151	456.03002	-41.20141	816.72196	426.05267	-348.75294	814.80008	306.20983	-338.09902	1004.31656	888.46983	-24.52270	1063.16543	796.37167	-31.97781	1027.01781	745.01147	-4.88729	911.18206	826.85249	-22.53954	974.39640	732.79801	-18.38349	957.90642	860.77971	-367.08675	962.16564	724.41825	-350.82077	839.12614	854.52823	-376.42980	854.30716	712.72829	-363.95276	962.85478	1054.08806	-76.36985	770.29937	1090.88981	-151.12393	968.16935	1054.40980	-335.50737	770.10034	1096.15033	-255.12628	772.07376	1600.75550	-229.80033	822.32279	1558.65315	-47.27810	858.93435	1559.91956	-383.92189	918.98063	1530.88844	-182.74592	925.34300	1527.48694	-235.71980	811.30209	1293.45663	56.25468	775.67445	1192.96167	-7.46257	794.69116	1206.73552	73.63095	885.53898	1073.55456	88.33203	944.97236	975.23286	78.41036	904.99068	967.71905	98.95131	915.15244	1308.92746	-480.46420	869.63424	1203.46205	-441.06367	912.62544	1219.65450	-496.63051	1018.21678	1081.50349	-493.47574	1075.86626	1002.18560	-471.44159	1051.11855	987.11989	-497.26502	879.97678	973.97680	-83.02937	882.88287	976.93920	-313.35912	893.82428	972.01822	-117.01079	893.49414	980.66035	-287.86074	
